<svg xmlns="http://www.w3.org/2000/svg" version="1.1" xmlns:xlink="http://www.w3.org/1999/xlink" xmlns:svgjs="http://svgjs.dev/svgjs" width="1500" height="1500" viewBox="0 0 1500 1500"><rect width="1500" height="1500" fill="#c72727"></rect><g transform="matrix(0.6666666666666666,0,0,0.6666666666666666,249.78425655976667,249.78425655976673)"><svg viewBox="0 0 343 343" data-background-color="#c72727" preserveAspectRatio="xMidYMid meet" height="1500" width="1500" xmlns="http://www.w3.org/2000/svg" xmlns:xlink="http://www.w3.org/1999/xlink"><g id="tight-bounds" transform="matrix(1,0,0,1,0.0740000000000407,0.07400000000001228)"><svg viewBox="0 0 342.85155851775386 342.85155851775386" height="342.85155851775386" width="342.85155851775386"><g><svg></svg></g><g><svg viewBox="0 0 342.85155851775386 342.85155851775386" height="342.85155851775386" width="342.85155851775386"><g><path d="M0 171.426c0-94.676 76.75-171.426 171.426-171.426 94.676 0 171.426 76.75 171.426 171.426 0 94.676-76.75 171.426-171.426 171.426-94.676 0-171.426-76.75-171.426-171.426zM171.426 340.355c93.297 0 168.929-75.632 168.929-168.929 0-93.297-75.632-168.929-168.929-168.929-93.297 0-168.929 75.632-168.929 168.929 0 93.297 75.632 168.929 168.929 168.929z" data-fill-palette-color="tertiary" fill="#ddd2c6" stroke="transparent"></path><ellipse rx="164.56874808852186" ry="164.56874808852186" cx="171.42577925887693" cy="171.42577925887693" fill="#ddd2c6" stroke="transparent" stroke-width="0" fill-opacity="1" data-fill-palette-color="tertiary"></ellipse></g><g transform="matrix(1,0,0,1,64.84655864529837,146.42116949150676)"><svg viewBox="0 0 213.1584412271571 50.00921953474037" height="50.00921953474037" width="213.1584412271571"><g><svg viewBox="0 0 294.5722434182726 69.10975659765967" height="50.00921953474037" width="213.1584412271571"><g transform="matrix(1,0,0,1,81.41380219111545,15.42595019859299)"><svg viewBox="0 0 213.15844122715714 38.25785620047369" height="38.25785620047369" width="213.15844122715714"><g id="textblocktransform"><svg viewBox="0 0 213.15844122715714 38.25785620047369" height="38.25785620047369" width="213.15844122715714" id="textblock"><g><svg viewBox="0 0 213.15844122715714 38.25785620047369" height="38.25785620047369" width="213.15844122715714"><g transform="matrix(1,0,0,1,0,0)"><svg width="213.15844122715714" viewBox="3.85 -35.9 202.23000000000002 36.3" height="38.25785620047369" data-palette-color="#8e4739"><path d="M7.9-14.2L7.9 0 3.85 0 3.85-33.7 8.95-33.7 17.4-19.5 25.95-4.9Q25.75-9.75 25.75-19.45L25.75-19.45 25.75-33.7 29.8-33.7 29.8 0 24.7 0 16.25-14.1Q13.7-18.35 11.55-22.03 9.4-25.7 8.5-27.3L8.5-27.3 7.65-28.85Q7.9-23.65 7.9-14.2L7.9-14.2ZM55.8-5L55.8-1.3Q52.85 0.25 48.6 0.25L48.6 0.25Q42.85 0.25 39.32-3.28 35.8-6.8 35.8-12.6L35.8-12.6Q35.8-18.65 38.95-22.15 42.1-25.65 47.05-25.65L47.05-25.65Q51.8-25.65 54.6-22.6 57.4-19.55 57.4-13.95L57.4-13.95Q57.4-12.35 57.15-11L57.15-11 39.85-11Q40.3-7.25 42.7-5.25 45.1-3.25 49-3.25L49-3.25Q53.25-3.25 55.8-5L55.8-5ZM47.05-22.2L47.05-22.2Q44.2-22.2 42.2-20.15 40.2-18.1 39.85-14.3L39.85-14.3 53.45-14.3 53.45-15.3Q53.45-18.45 51.75-20.33 50.05-22.2 47.05-22.2ZM75.95-8.3L73.65 0 68.8 0 61-25.35 65.2-25.35 67.65-16.95Q68.95-12.55 69.82-9.28 70.7-6 70.95-4.9L70.95-4.9 71.2-3.85Q71.95-7.05 74.84-17L74.84-17 77.25-25.35 81.45-25.35 83.9-17 87.65-3.8Q88.34-6.75 91.5-17L91.5-17 94.05-25.35 98.09-25.35 90.09 0 85.25 0 82.84-8.3 79.34-20.95Q78.59-17.75 75.95-8.3L75.95-8.3ZM118.24-6.75L118.24-6.75Q118.24-3.5 115.97-1.6 113.69 0.3 109.74 0.3L109.74 0.3Q105.14 0.3 102.29-1.25L102.29-1.25 102.29-5.1Q105.64-3.1 109.49-3.1L109.49-3.1Q111.79-3.1 112.99-4 114.19-4.9 114.19-6.45L114.19-6.45Q114.19-8.25 112.87-9.25 111.54-10.25 108.44-11.5L108.44-11.5Q105.59-12.6 103.87-14.25 102.14-15.9 102.14-18.7L102.14-18.7Q102.14-21.85 104.52-23.73 106.89-25.6 110.44-25.6L110.44-25.6Q114.39-25.6 116.79-24.5L116.79-24.5 116.79-20.75Q114.49-22.15 110.49-22.15L110.49-22.15Q108.49-22.15 107.32-21.23 106.14-20.3 106.14-18.85L106.14-18.85Q106.14-17.95 106.49-17.28 106.84-16.6 107.87-15.95 108.89-15.3 109.37-15.08 109.84-14.85 111.44-14.15L111.44-14.15Q114.64-12.85 116.44-11.2 118.24-9.55 118.24-6.75ZM150.04-2.8L150.09-2.65Q146.04 0.4 139.64 0.4L139.64 0.4Q131.84 0.4 127.09-4.23 122.34-8.85 122.34-16.9L122.34-16.9Q122.34-24.55 127.06-29.43 131.79-34.3 138.99-34.3L138.99-34.3Q144.94-34.3 148.84-32L148.84-32 148.84-27.65Q144.74-30.35 139.34-30.35L139.34-30.35Q133.69-30.35 130.14-26.68 126.59-23 126.59-16.9L126.59-16.9Q126.59-10.65 130.09-7.08 133.59-3.5 139.74-3.5L139.74-3.5Q143.14-3.5 146.04-4.85L146.04-4.85 146.04-15.35 138.64-15.35 138.64-18.9 150.09-18.9 150.09-2.8 150.04-2.8ZM160.99-13.85L160.99 0 157.04 0 157.09-25.35 160.99-25.35 160.99-20.9Q162.99-25.6 167.89-25.6L167.89-25.6Q168.79-25.6 169.29-25.5L169.29-25.5 169.29-21.6Q168.24-21.95 167.14-21.95L167.14-21.95Q164.49-21.95 162.74-19.5 160.99-17.05 160.99-13.85L160.99-13.85ZM177.54-25.35L177.54 0 173.59 0 173.59-25.35 177.54-25.35ZM177.39-35.15Q178.14-34.4 178.14-33.3 178.14-32.2 177.39-31.48 176.64-30.75 175.54-30.75 174.44-30.75 173.71-31.48 172.99-32.2 172.99-33.3 172.99-34.4 173.71-35.15 174.44-35.9 175.54-35.9 176.64-35.9 177.39-35.15ZM187.63-12.4L187.63-12.4Q187.63-8.3 189.63-5.75 191.63-3.2 194.68-3.2L194.68-3.2Q197.78-3.2 199.96-5.5 202.13-7.8 202.13-12.85L202.13-12.85Q202.13-17.65 199.88-19.9 197.63-22.15 194.93-22.15L194.93-22.15Q191.78-22.15 189.71-19.63 187.63-17.1 187.63-12.4ZM206.08-35.35L206.08 0 202.13 0 202.13-3.75Q199.43 0.4 194.33 0.4L194.33 0.4Q189.28 0.4 186.41-3.35 183.53-7.1 183.53-12.45L183.53-12.45Q183.53-18.4 186.58-22.08 189.63-25.75 194.43-25.75L194.43-25.75Q199.38-25.75 202.13-21.5L202.13-21.5 202.13-35.35 206.08-35.35Z" opacity="1" transform="matrix(1,0,0,1,0,0)" fill="#8e4739" class="wordmark-text-0" data-fill-palette-color="quaternary" id="text-0"></path></svg></g></svg></g></svg></g></svg></g><g><svg viewBox="0 0 72.38204053073243 69.10975659765967" height="69.10975659765967" width="72.38204053073243"><g><svg xmlns="http://www.w3.org/2000/svg" xmlns:xlink="http://www.w3.org/1999/xlink" version="1.1" x="0" y="0" viewBox="27.647 28.658000000000005 44.704001114625164 42.68299999999999" enable-background="new 0 0 100 100" xml:space="preserve" height="69.10975659765967" width="72.38204053073243" class="icon-icon-0" data-fill-palette-color="quaternary" id="icon-0"><path d="M70.852 35.496h-3.115v-1.919c0-0.829-0.672-1.5-1.5-1.5H63.12v-1.919c0-0.828-0.672-1.5-1.5-1.5H29.147c-0.829 0-1.5 0.672-1.5 1.5v35.068c0 3.372 2.743 6.115 6.116 6.115h32.472c3.372 0 6.116-2.743 6.116-6.115v-28.23C72.352 36.168 71.68 35.496 70.852 35.496zM33.764 68.342c-1.719 0-3.116-1.397-3.116-3.115V31.658H60.12v33.559c0 0.004-0.001 0.007-0.001 0.01 0 0.26 0.021 0.514 0.053 0.766 0.008 0.062 0.02 0.124 0.029 0.187 0.03 0.195 0.07 0.388 0.119 0.576 0.015 0.058 0.028 0.116 0.045 0.174 0.069 0.238 0.148 0.472 0.245 0.696 0.004 0.01 0.009 0.019 0.014 0.027 0.092 0.213 0.198 0.417 0.313 0.617 0.014 0.023 0.023 0.049 0.037 0.072H33.764zM69.352 65.227c0 1.718-1.397 3.115-3.116 3.115-1.718 0-3.115-1.397-3.115-3.115V35.077h1.616v1.909c0 0.004-0.001 0.006-0.001 0.01v28.553c0 0.828 0.672 1.5 1.5 1.5s1.5-0.672 1.5-1.5V38.496h1.616V65.227zM55.734 48.748H35.031c-0.828 0-1.5 0.672-1.5 1.5s0.672 1.5 1.5 1.5h20.703c0.828 0 1.5-0.672 1.5-1.5S56.562 48.748 55.734 48.748zM55.734 61.311H35.031c-0.828 0-1.5 0.672-1.5 1.5s0.672 1.5 1.5 1.5h20.703c0.828 0 1.5-0.672 1.5-1.5S56.562 61.311 55.734 61.311zM55.734 55.029H35.031c-0.828 0-1.5 0.672-1.5 1.5s0.672 1.5 1.5 1.5h20.703c0.828 0 1.5-0.672 1.5-1.5S56.562 55.029 55.734 55.029zM55.734 36.186H35.031c-0.828 0-1.5 0.672-1.5 1.5s0.672 1.5 1.5 1.5h20.703c0.828 0 1.5-0.672 1.5-1.5S56.562 36.186 55.734 36.186zM55.734 42.467H35.031c-0.828 0-1.5 0.672-1.5 1.5s0.672 1.5 1.5 1.5h20.703c0.828 0 1.5-0.672 1.5-1.5S56.562 42.467 55.734 42.467z" fill="#8e4739" data-fill-palette-color="quaternary"></path></svg></g></svg></g></svg></g></svg></g></svg></g><defs></defs></svg><rect width="342.85155851775386" height="342.85155851775386" fill="none" stroke="none" visibility="hidden"></rect></g></svg></g></svg>